<svg xmlns="http://www.w3.org/2000/svg" xmlns:xlink="http://www.w3.org/1999/xlink" width="160" zoomAndPan="magnify" viewBox="0 0 120 48.75" height="65" preserveAspectRatio="xMidYMid meet" version="1.0"><defs><g/><clipPath id="id1"><path d="M 33 30 L 48 30 L 48 48.5 L 33 48.5 Z M 33 30 " clip-rule="nonzero"/></clipPath><clipPath id="id2"><path d="M 69 11 L 73.457031 11 L 73.457031 18 L 69 18 Z M 69 11 " clip-rule="nonzero"/></clipPath><clipPath id="id3"><path d="M 26.449219 19 L 30 19 L 30 25 L 26.449219 25 Z M 26.449219 19 " clip-rule="nonzero"/></clipPath></defs><g fill="rgb(100%, 100%, 100%)" fill-opacity="1"><g transform="translate(-2.478037, 32.108047)"><g><path d="M 23.109375 -14.671875 C 23.671875 -14.460938 24.332031 -14.285156 25.09375 -14.140625 C 25.757812 -13.992188 26.257812 -13.859375 26.59375 -13.734375 C 26.925781 -13.609375 27.207031 -13.453125 27.4375 -13.265625 C 27.414062 -13.242188 27.289062 -13.109375 27.0625 -12.859375 C 26.832031 -12.585938 26.640625 -12.382812 26.484375 -12.25 C 26.328125 -12.113281 26.164062 -12.046875 26 -12.046875 C 25.144531 -12.046875 24.367188 -12.15625 23.671875 -12.375 C 22.984375 -12.59375 22.285156 -12.953125 21.578125 -13.453125 L 21.140625 -13.453125 C 21.054688 -13.453125 20.992188 -13.429688 20.953125 -13.390625 C 20.890625 -13.328125 20.804688 -13.273438 20.703125 -13.234375 L 20.421875 -13.078125 L 20.296875 -12.953125 C 19.847656 -12.742188 19.300781 -12.554688 18.65625 -12.390625 C 18.820312 -12.265625 18.90625 -12.097656 18.90625 -11.890625 C 18.90625 -11.804688 18.875 -11.703125 18.8125 -11.578125 C 18.601562 -11.171875 17.90625 -10.601562 16.71875 -9.875 C 16.382812 -9.644531 16.113281 -9.476562 15.90625 -9.375 C 15.90625 -9.375 15.910156 -9.367188 15.921875 -9.359375 C 15.929688 -9.347656 15.957031 -9.34375 16 -9.34375 C 16.351562 -9.34375 16.796875 -9.4375 17.328125 -9.625 C 17.859375 -9.8125 18.4375 -10.113281 19.0625 -10.53125 C 19.101562 -10.507812 19.257812 -10.425781 19.53125 -10.28125 C 19.71875 -10.175781 19.847656 -10.078125 19.921875 -9.984375 C 20.003906 -9.890625 20.046875 -9.757812 20.046875 -9.59375 C 20.023438 -9.570312 19.863281 -9.414062 19.5625 -9.125 C 19.269531 -8.875 19.125 -8.726562 19.125 -8.6875 C 19.125 -8.582031 19.289062 -8.46875 19.625 -8.34375 C 20.425781 -8.070312 21.078125 -7.6875 21.578125 -7.1875 C 21.867188 -6.894531 22.015625 -6.535156 22.015625 -6.109375 C 22.015625 -5.734375 21.96875 -5.488281 21.875 -5.375 C 21.78125 -5.257812 21.523438 -5.179688 21.109375 -5.140625 L 18.03125 -5.015625 L 18.03125 -3.296875 C 18.820312 -3.296875 19.394531 -3.335938 19.75 -3.421875 C 20.09375 -3.484375 20.597656 -3.515625 21.265625 -3.515625 C 22.078125 -3.515625 22.742188 -3.347656 23.265625 -3.015625 C 23.847656 -2.617188 24.140625 -2.132812 24.140625 -1.5625 C 24.140625 -1.269531 24.109375 -1.09375 24.046875 -1.03125 C 23.984375 -0.96875 23.785156 -0.9375 23.453125 -0.9375 C 22.578125 -0.9375 21.804688 -1.207031 21.140625 -1.75 L 20.640625 -2.125 C 20.109375 -2.53125 19.570312 -2.785156 19.03125 -2.890625 L 18.625 -2.859375 L 18.03125 -2.796875 L 18.03125 1 C 18.03125 1.5 17.78125 1.75 17.28125 1.75 C 17.113281 1.75 16.882812 1.65625 16.59375 1.46875 L 15.90625 1.125 L 13.796875 -0.65625 C 13.796875 -0.320312 13.785156 -0.125 13.765625 -0.0625 L 13.671875 0.3125 L 13.578125 0.71875 L 13.515625 1 C 13.515625 1.1875 13.472656 1.351562 13.390625 1.5 L 13.328125 1.75 L 13.046875 1.75 C 12.335938 1.75 11.710938 1.40625 11.171875 0.71875 C 10.679688 0.09375 10.4375 -0.539062 10.4375 -1.1875 L 10.4375 -1.5 C 10.414062 -1.519531 10.40625 -1.582031 10.40625 -1.6875 C 10.40625 -1.851562 10.445312 -1.988281 10.53125 -2.09375 C 10.570312 -2.15625 10.625 -2.1875 10.6875 -2.1875 C 11.03125 -2.1875 11.304688 -2.09375 11.515625 -1.90625 C 11.703125 -1.71875 11.984375 -1.59375 12.359375 -1.53125 L 14.234375 -1.53125 L 14.359375 -1.46875 L 14.578125 -1.3125 C 14.785156 -1.144531 14.929688 -1.0625 15.015625 -1.0625 C 15.097656 -1.0625 15.222656 -1.019531 15.390625 -0.9375 C 15.566406 -0.875 15.769531 -0.84375 16 -0.84375 L 16 -3.796875 L 15.265625 -3.796875 C 15.265625 -3.796875 15.085938 -3.742188 14.734375 -3.640625 L 13.140625 -3.265625 L 12.828125 -3.203125 C 12.703125 -3.203125 12.617188 -3.285156 12.578125 -3.453125 C 12.535156 -3.617188 12.503906 -3.921875 12.484375 -4.359375 L 13.484375 -5.359375 L 14.109375 -5.953125 C 14.359375 -6.179688 14.523438 -6.316406 14.609375 -6.359375 L 14.609375 -6.875 C 14.109375 -6.65625 13.707031 -6.507812 13.40625 -6.4375 C 13.101562 -6.363281 12.753906 -6.328125 12.359375 -6.328125 C 11.734375 -6.328125 11.421875 -6.664062 11.421875 -7.34375 C 11.421875 -7.738281 11.492188 -8 11.640625 -8.125 L 15.625 -11.203125 C 16.039062 -11.617188 16.320312 -11.960938 16.46875 -12.234375 C 16.28125 -12.234375 16.09375 -12.265625 15.90625 -12.328125 C 15.71875 -12.390625 15.625 -12.503906 15.625 -12.671875 C 15.625 -12.753906 15.664062 -12.847656 15.75 -12.953125 C 15.832031 -12.953125 16.144531 -12.992188 16.6875 -13.078125 L 16.6875 -13.234375 L 16.84375 -13.234375 L 17.09375 -13.171875 C 17.570312 -13.253906 18.15625 -13.398438 18.84375 -13.609375 C 19.113281 -13.671875 19.34375 -13.773438 19.53125 -13.921875 C 19.71875 -14.066406 19.898438 -14.285156 20.078125 -14.578125 L 20.078125 -14.671875 C 20.078125 -14.796875 20 -14.890625 19.84375 -14.953125 C 19.675781 -15.015625 19.582031 -15.054688 19.5625 -15.078125 L 18.71875 -15.453125 C 18.132812 -15.691406 17.832031 -15.820312 17.8125 -15.84375 C 17.644531 -15.925781 17.40625 -15.96875 17.09375 -15.96875 C 16.882812 -15.96875 16.6875 -15.828125 16.5 -15.546875 C 16.3125 -15.273438 16.1875 -15.054688 16.125 -14.890625 C 16.269531 -14.828125 16.445312 -14.773438 16.65625 -14.734375 C 17.113281 -14.566406 17.476562 -14.410156 17.75 -14.265625 C 17.875 -14.203125 17.9375 -14.117188 17.9375 -14.015625 C 17.9375 -13.867188 17.800781 -13.765625 17.53125 -13.703125 C 17.132812 -13.578125 16.582031 -13.515625 15.875 -13.515625 C 15.613281 -13.492188 15.460938 -13.460938 15.421875 -13.421875 L 15.296875 -13.203125 C 15.234375 -13.078125 15.203125 -12.972656 15.203125 -12.890625 L 15.203125 -12.609375 L 15.046875 -12.484375 L 14.640625 -11.921875 C 14.429688 -11.585938 14.175781 -11.34375 13.875 -11.1875 C 13.570312 -11.039062 13.273438 -10.96875 12.984375 -10.96875 C 12.609375 -10.96875 12.171875 -11.210938 11.671875 -11.703125 C 11.671875 -11.722656 11.640625 -11.765625 11.578125 -11.828125 L 11.421875 -12.046875 L 11.234375 -12.234375 C 11.171875 -12.316406 11.113281 -12.359375 11.0625 -12.359375 L 10.09375 -12.359375 C 9.988281 -12.359375 9.882812 -12.476562 9.78125 -12.71875 C 9.675781 -12.957031 9.625 -13.171875 9.625 -13.359375 C 9.625 -13.546875 9.6875 -13.742188 9.8125 -13.953125 C 9.8125 -13.992188 9.9375 -14.203125 10.1875 -14.578125 C 10.25 -14.640625 10.320312 -14.773438 10.40625 -14.984375 L 10.53125 -15.140625 C 10.550781 -15.179688 10.601562 -15.242188 10.6875 -15.328125 L 10.25 -15.328125 C 10.164062 -15.328125 10.101562 -15.304688 10.0625 -15.265625 L 9.8125 -15.171875 C 9.726562 -15.109375 9.65625 -15.078125 9.59375 -15.078125 L 9.46875 -15.015625 C 9.03125 -14.828125 8.414062 -14.734375 7.625 -14.734375 C 7.1875 -14.734375 6.820312 -14.867188 6.53125 -15.140625 C 6.25 -15.421875 6.109375 -15.738281 6.109375 -16.09375 L 6.8125 -15.8125 C 7.019531 -15.769531 7.195312 -15.75 7.34375 -15.75 C 7.78125 -15.75 8.144531 -15.796875 8.4375 -15.890625 C 8.726562 -15.984375 9.195312 -16.175781 9.84375 -16.46875 L 10.875 -16.96875 C 10.851562 -17.070312 10.84375 -17.289062 10.84375 -17.625 C 10.84375 -17.957031 10.890625 -18.242188 10.984375 -18.484375 C 11.085938 -18.722656 11.265625 -18.96875 11.515625 -19.21875 L 11.890625 -19.53125 C 11.972656 -19.613281 12.109375 -19.707031 12.296875 -19.8125 C 12.484375 -19.914062 12.609375 -20.003906 12.671875 -20.078125 L 13.921875 -21.203125 C 14.023438 -21.304688 14.078125 -21.390625 14.078125 -21.453125 L 14.078125 -21.546875 C 14.078125 -21.773438 13.941406 -21.890625 13.671875 -21.890625 L 13.578125 -21.890625 C 13.492188 -21.890625 13.390625 -21.859375 13.265625 -21.796875 L 13.109375 -21.703125 L 10.59375 -19.8125 C 10.488281 -19.75 10.34375 -19.71875 10.15625 -19.71875 L 10.125 -19.71875 C 9.976562 -19.820312 9.882812 -19.910156 9.84375 -19.984375 C 9.800781 -20.066406 9.789062 -20.171875 9.8125 -20.296875 L 9.8125 -21.140625 L 10 -21.359375 L 10.75 -22.265625 L 10.96875 -22.515625 C 11.332031 -23.078125 11.585938 -23.519531 11.734375 -23.84375 C 11.878906 -24.164062 11.953125 -24.488281 11.953125 -24.8125 L 12.015625 -25.5625 C 12.367188 -25.5625 12.597656 -25.570312 12.703125 -25.59375 C 12.972656 -25.59375 13.160156 -25.539062 13.265625 -25.4375 C 13.535156 -25.3125 13.703125 -25.222656 13.765625 -25.171875 C 13.828125 -25.117188 13.878906 -25.007812 13.921875 -24.84375 C 14.003906 -24.59375 14.046875 -24.429688 14.046875 -24.359375 C 14.046875 -24.253906 13.992188 -24.066406 13.890625 -23.796875 L 13.515625 -23.078125 C 13.429688 -22.910156 13.984375 -22.828125 15.171875 -22.828125 L 15.59375 -22.828125 C 15.84375 -22.828125 16.078125 -22.769531 16.296875 -22.65625 C 16.515625 -22.539062 16.695312 -22.390625 16.84375 -22.203125 C 16.90625 -22.140625 16.9375 -22.023438 16.9375 -21.859375 C 16.9375 -21.710938 16.785156 -21.578125 16.484375 -21.453125 C 16.179688 -21.328125 15.925781 -21.253906 15.71875 -21.234375 L 15.484375 -21.171875 C 15.359375 -21.128906 15.285156 -21.097656 15.265625 -21.078125 L 14.671875 -20.578125 C 14.234375 -20.265625 13.742188 -19.84375 13.203125 -19.3125 C 13.578125 -19.375 14.015625 -19.476562 14.515625 -19.625 L 15.546875 -20 C 15.910156 -20.09375 16.21875 -20.140625 16.46875 -20.140625 C 16.800781 -20.140625 17.09375 -20.050781 17.34375 -19.875 C 17.59375 -19.707031 17.71875 -19.507812 17.71875 -19.28125 C 17.71875 -19.175781 17.660156 -19.054688 17.546875 -18.921875 C 17.429688 -18.785156 17.300781 -18.65625 17.15625 -18.53125 L 16.9375 -18.375 C 16.664062 -18.1875 16.53125 -17.976562 16.53125 -17.75 C 16.53125 -17.644531 16.59375 -17.5625 16.71875 -17.5 C 16.800781 -17.4375 16.976562 -17.375 17.25 -17.3125 L 17.53125 -17.25 L 17.78125 -17.15625 L 18.1875 -17.03125 L 19.28125 -16.40625 C 19.632812 -16.175781 19.984375 -15.957031 20.328125 -15.75 C 20.472656 -15.664062 20.640625 -15.601562 20.828125 -15.5625 L 20.984375 -16.0625 C 21.046875 -16.289062 21.078125 -16.476562 21.078125 -16.625 C 21.078125 -17.039062 21.03125 -17.347656 20.9375 -17.546875 C 20.84375 -17.742188 20.628906 -17.84375 20.296875 -17.84375 C 20.097656 -17.84375 19.820312 -17.71875 19.46875 -17.46875 L 19.3125 -17.375 C 19.269531 -17.351562 19.207031 -17.300781 19.125 -17.21875 L 19 -17.0625 C 18.4375 -17.3125 18.15625 -17.738281 18.15625 -18.34375 C 18.15625 -18.757812 18.34375 -19.316406 18.71875 -20.015625 L 19.03125 -20.578125 C 19.34375 -21.160156 19.566406 -21.625 19.703125 -21.96875 C 19.835938 -22.3125 19.90625 -22.648438 19.90625 -22.984375 C 19.90625 -23.210938 19.804688 -23.421875 19.609375 -23.609375 C 19.410156 -23.796875 19.226562 -23.867188 19.0625 -23.828125 L 19.09375 -23.890625 C 19.195312 -23.890625 19.257812 -23.898438 19.28125 -23.921875 L 19.6875 -23.953125 C 20.363281 -23.953125 20.914062 -23.851562 21.34375 -23.65625 C 21.769531 -23.457031 21.984375 -23.148438 21.984375 -22.734375 C 21.984375 -22.460938 21.921875 -22.210938 21.796875 -21.984375 L 21.546875 -21.484375 L 21.109375 -20.734375 L 20.421875 -19.46875 L 20.421875 -19.1875 C 21.710938 -19.5 22.796875 -19.65625 23.671875 -19.65625 C 24.109375 -19.65625 24.457031 -19.609375 24.71875 -19.515625 C 24.988281 -19.421875 25.125 -19.289062 25.125 -19.125 C 25.125 -19 24.945312 -18.882812 24.59375 -18.78125 L 24.296875 -18.75 L 23.765625 -18.6875 C 23.515625 -18.6875 23.191406 -18.632812 22.796875 -18.53125 L 22.296875 -18.375 C 22.191406 -18.332031 22.140625 -18.257812 22.140625 -18.15625 C 22.140625 -18.03125 22.171875 -17.90625 22.234375 -17.78125 L 22.328125 -17.53125 C 22.390625 -17.28125 22.421875 -17.03125 22.421875 -16.78125 C 22.421875 -16.34375 22.378906 -15.945312 22.296875 -15.59375 C 22.210938 -15.25 22.171875 -15.066406 22.171875 -15.046875 Z M 15.359375 -18.9375 L 14.921875 -18.9375 L 14.421875 -18.84375 C 14.210938 -18.78125 14.015625 -18.75 13.828125 -18.75 C 13.742188 -18.726562 13.515625 -18.675781 13.140625 -18.59375 L 12.578125 -18.1875 C 13.097656 -18.125 13.441406 -18.03125 13.609375 -17.90625 C 13.835938 -17.738281 14.054688 -17.65625 14.265625 -17.65625 C 14.640625 -17.65625 14.921875 -17.800781 15.109375 -18.09375 C 15.273438 -18.320312 15.359375 -18.601562 15.359375 -18.9375 Z M 12.296875 -16.75 L 13.171875 -16.875 L 12.390625 -17.3125 Z M 15.046875 -15.875 C 15.046875 -16.0625 15 -16.203125 14.90625 -16.296875 C 14.8125 -16.390625 14.648438 -16.4375 14.421875 -16.4375 C 14.085938 -16.4375 13.722656 -16.390625 13.328125 -16.296875 C 12.929688 -16.203125 12.679688 -16.070312 12.578125 -15.90625 C 12.640625 -15.84375 12.816406 -15.800781 13.109375 -15.78125 C 13.710938 -15.65625 14.015625 -15.453125 14.015625 -15.171875 L 14.296875 -14.796875 L 14.328125 -14.796875 C 14.429688 -14.796875 14.539062 -14.816406 14.65625 -14.859375 C 14.769531 -14.898438 14.847656 -14.972656 14.890625 -15.078125 C 14.992188 -15.242188 15.046875 -15.507812 15.046875 -15.875 Z M 11.703125 -14.234375 L 12.109375 -14.234375 C 12.273438 -14.234375 12.46875 -14.253906 12.6875 -14.296875 C 12.90625 -14.335938 13.066406 -14.367188 13.171875 -14.390625 C 13.128906 -14.429688 13.097656 -14.503906 13.078125 -14.609375 C 13.035156 -14.710938 12.984375 -14.765625 12.921875 -14.765625 C 12.585938 -14.765625 12.316406 -14.785156 12.109375 -14.828125 L 11.765625 -14.703125 Z M 14.359375 -13.515625 L 13.859375 -13.515625 C 13.566406 -13.515625 13.128906 -13.421875 12.546875 -13.234375 C 11.960938 -13.046875 11.609375 -12.835938 11.484375 -12.609375 C 11.691406 -12.335938 12.054688 -12.203125 12.578125 -12.203125 C 13.015625 -12.203125 13.359375 -12.300781 13.609375 -12.5 C 13.859375 -12.695312 14.109375 -13.035156 14.359375 -13.515625 Z M 16.6875 -6.609375 C 16.789062 -6.398438 16.875 -6.28125 16.9375 -6.25 C 17 -6.21875 17.113281 -6.203125 17.28125 -6.203125 C 17.71875 -6.203125 18.269531 -6.375 18.9375 -6.71875 L 18.625 -7.28125 C 18.539062 -7.488281 18.351562 -7.59375 18.0625 -7.59375 L 17.84375 -7.59375 C 17.820312 -7.507812 17.757812 -7.4375 17.65625 -7.375 L 17.3125 -7.125 Z M 16.6875 -6.609375 "/></g></g></g><g fill="rgb(100%, 100%, 100%)" fill-opacity="1"><g transform="translate(20.514945, 32.521768)"><g><path d="M 22.59375 -1.015625 C 22.59375 -0.710938 22.550781 -0.550781 22.46875 -0.53125 L 21.234375 -0.59375 C 20.015625 -0.59375 18.773438 -0.457031 17.515625 -0.1875 L 16.515625 0 L 15.0625 0.25 C 14.28125 0.394531 13.492188 0.46875 12.703125 0.46875 C 12.316406 0.46875 12.019531 0.390625 11.8125 0.234375 C 11.601562 0.078125 11.394531 -0.1875 11.1875 -0.5625 C 11 -0.90625 10.851562 -1.234375 10.75 -1.546875 C 10.6875 -1.710938 10.65625 -1.835938 10.65625 -1.921875 C 10.601562 -1.960938 10.578125 -1.992188 10.578125 -2.015625 C 10.554688 -2.035156 10.566406 -2.046875 10.609375 -2.046875 L 11.3125 -2.015625 C 11.539062 -2.015625 11.835938 -2.066406 12.203125 -2.171875 C 12.578125 -2.273438 12.953125 -2.410156 13.328125 -2.578125 C 13.847656 -2.816406 14.21875 -3.039062 14.4375 -3.25 C 14.664062 -3.457031 14.78125 -3.6875 14.78125 -3.9375 C 14.78125 -4.125 14.671875 -4.3125 14.453125 -4.5 C 14.054688 -4.757812 13.578125 -5.171875 13.015625 -5.734375 C 12.804688 -5.941406 12.703125 -6.148438 12.703125 -6.359375 C 12.703125 -6.460938 12.710938 -6.523438 12.734375 -6.546875 L 12.796875 -6.609375 L 13.421875 -6.390625 L 14.65625 -6.703125 C 15.007812 -6.703125 15.242188 -6.75 15.359375 -6.84375 C 15.472656 -6.945312 15.53125 -7.195312 15.53125 -7.59375 L 15.53125 -7.78125 C 15.53125 -7.988281 15.46875 -8.195312 15.34375 -8.40625 L 15.1875 -8.65625 L 14.84375 -8.65625 C 14.5 -8.53125 14.125 -8.347656 13.71875 -8.109375 C 13.3125 -7.867188 12.707031 -7.46875 11.90625 -6.90625 C 10.644531 -6.0625 9.765625 -5.640625 9.265625 -5.640625 C 8.972656 -5.640625 8.753906 -5.785156 8.609375 -6.078125 C 8.472656 -6.367188 8.40625 -6.707031 8.40625 -7.09375 L 8.40625 -7.21875 L 8.53125 -7.71875 L 8.625 -8.03125 L 8.65625 -8.1875 L 10.015625 -9.546875 L 10.875 -10.390625 C 11.394531 -10.921875 11.84375 -11.34375 12.21875 -11.65625 C 13.082031 -12.351562 13.628906 -12.828125 13.859375 -13.078125 C 14.128906 -13.367188 14.347656 -13.703125 14.515625 -14.078125 L 14.515625 -14.453125 C 13.171875 -15.460938 12.195312 -16.414062 11.59375 -17.3125 C 10.988281 -18.207031 10.6875 -19.222656 10.6875 -20.359375 L 10.6875 -21.078125 C 10.875 -20.867188 11.175781 -20.617188 11.59375 -20.328125 C 12.007812 -20.046875 12.429688 -19.78125 12.859375 -19.53125 C 13.898438 -18.863281 14.707031 -18.203125 15.28125 -17.546875 L 15.5 -17.546875 C 15.875 -17.546875 16.0625 -17.710938 16.0625 -18.046875 C 16.0625 -18.234375 16 -18.414062 15.875 -18.59375 C 15.5 -19.070312 15.238281 -19.4375 15.09375 -19.6875 C 14.96875 -19.914062 14.90625 -20.125 14.90625 -20.3125 L 17.171875 -20.3125 C 17.441406 -20.3125 17.578125 -20.484375 17.578125 -20.828125 L 17.578125 -21.078125 C 17.015625 -21.242188 16.488281 -21.472656 16 -21.765625 C 15.769531 -21.890625 15.546875 -22.03125 15.328125 -22.1875 C 15.109375 -22.351562 14.957031 -22.488281 14.875 -22.59375 C 14.851562 -22.59375 14.84375 -22.601562 14.84375 -22.625 C 14.863281 -22.664062 14.898438 -22.710938 14.953125 -22.765625 C 15.003906 -22.816406 15.0625 -22.851562 15.125 -22.875 L 15.9375 -23.15625 L 16.921875 -23.46875 L 17.765625 -23.75 C 17.953125 -23.832031 18.085938 -23.875 18.171875 -23.875 L 18.9375 -23.875 C 20.863281 -23.875 21.828125 -23.203125 21.828125 -21.859375 C 21.828125 -21.359375 21.707031 -20.921875 21.46875 -20.546875 C 21.226562 -20.179688 20.867188 -19.8125 20.390625 -19.4375 C 19.835938 -19.019531 19.425781 -18.726562 19.15625 -18.5625 C 18.78125 -18.34375 18.390625 -17.960938 17.984375 -17.421875 C 18.285156 -16.984375 18.492188 -16.65625 18.609375 -16.4375 C 18.722656 -16.226562 18.78125 -16.007812 18.78125 -15.78125 L 18.78125 -15.46875 L 18.53125 -15.3125 C 18.25 -15.164062 18.066406 -15.0625 17.984375 -15 C 17.523438 -14.6875 17.222656 -14.523438 17.078125 -14.515625 L 16.703125 -14.140625 C 16.765625 -14.015625 16.835938 -13.910156 16.921875 -13.828125 C 17.128906 -13.617188 17.285156 -13.398438 17.390625 -13.171875 L 17.515625 -12.984375 C 17.640625 -12.773438 17.710938 -12.539062 17.734375 -12.28125 C 17.734375 -11.96875 17.867188 -11.769531 18.140625 -11.6875 L 20.703125 -11.6875 C 20.929688 -11.6875 21.132812 -11.5625 21.3125 -11.3125 C 21.488281 -11.0625 21.578125 -10.816406 21.578125 -10.578125 C 21.578125 -10.140625 21.113281 -9.921875 20.1875 -9.921875 L 19.6875 -9.921875 L 19.15625 -9.984375 C 19.09375 -10.003906 18.945312 -10.015625 18.71875 -10.015625 C 18.332031 -10.015625 18.03125 -9.953125 17.8125 -9.828125 C 17.59375 -9.703125 17.484375 -9.472656 17.484375 -9.140625 C 17.484375 -8.859375 17.613281 -8.625 17.875 -8.4375 C 18.132812 -8.25 18.507812 -8.050781 19 -7.84375 L 19.65625 -7.5625 C 20.414062 -7.207031 20.796875 -6.691406 20.796875 -6.015625 C 20.796875 -5.640625 20.734375 -5.390625 20.609375 -5.265625 L 20.25 -5.046875 L 19.53125 -4.6875 C 19.007812 -4.476562 18.65625 -4.289062 18.46875 -4.125 L 18.109375 -3.84375 C 18.023438 -3.84375 17.898438 -3.742188 17.734375 -3.546875 C 17.566406 -3.347656 17.484375 -3.164062 17.484375 -3 L 21.234375 -3 C 21.566406 -3 21.890625 -2.765625 22.203125 -2.296875 C 22.460938 -1.835938 22.59375 -1.410156 22.59375 -1.015625 Z M 15.90625 -12.734375 L 15.3125 -12.734375 L 11.9375 -9.390625 L 12.5625 -9.390625 L 12.984375 -9.546875 L 13.734375 -9.921875 C 14.453125 -10.253906 14.9375 -10.507812 15.1875 -10.6875 C 15.5 -10.851562 15.695312 -11.082031 15.78125 -11.375 C 15.863281 -11.664062 15.90625 -12.117188 15.90625 -12.734375 Z M 15.90625 -12.734375 "/></g></g></g><g fill="rgb(100%, 100%, 100%)" fill-opacity="1"><g transform="translate(51.909777, 10.156307)"><g/></g></g><g fill="rgb(100%, 100%, 100%)" fill-opacity="1"><g transform="translate(53.246552, 30.043387)"><g><path d="M 13.484375 -19.265625 L 13.59375 -19.234375 C 14.019531 -18.984375 14.390625 -18.695312 14.703125 -18.375 C 15.015625 -18.0625 15.300781 -17.726562 15.5625 -17.375 C 15.832031 -17.03125 16.046875 -16.65625 16.203125 -16.25 C 16.847656 -14.675781 16.285156 -12.921875 14.515625 -10.984375 C 13.765625 -10.171875 12.921875 -9.472656 11.984375 -8.890625 C 12.222656 -8.722656 12.445312 -8.597656 12.65625 -8.515625 C 12.875 -8.441406 13.175781 -8.296875 13.5625 -8.078125 C 13.957031 -7.867188 14.210938 -7.46875 14.328125 -6.875 C 14.453125 -6.289062 14.421875 -5.632812 14.234375 -4.90625 C 14.054688 -4.175781 13.734375 -3.421875 13.265625 -2.640625 C 12.796875 -1.867188 12.1875 -1.175781 11.4375 -0.5625 C 9.738281 0.851562 7.765625 1.445312 5.515625 1.21875 C 5.191406 1.21875 4.988281 1.191406 4.90625 1.140625 C 4.820312 1.097656 4.753906 1.054688 4.703125 1.015625 C 4.648438 0.984375 4.539062 0.957031 4.375 0.9375 C 3.945312 1.28125 3.457031 1.492188 2.90625 1.578125 C 2.363281 1.671875 1.847656 1.628906 1.359375 1.453125 C 0.878906 1.285156 0.472656 0.992188 0.140625 0.578125 C -0.191406 0.171875 -0.359375 -0.359375 -0.359375 -1.015625 C -0.304688 -1.460938 -0.222656 -1.8125 -0.109375 -2.0625 C -0.148438 -2.21875 -0.171875 -2.40625 -0.171875 -2.625 C 0.398438 -5.707031 0.941406 -8.066406 1.453125 -9.703125 C 2.492188 -12.960938 3.617188 -15.414062 4.828125 -17.0625 C 5.816406 -18.457031 7.1875 -19.359375 8.9375 -19.765625 C 10.625 -20.160156 12.140625 -19.992188 13.484375 -19.265625 Z M 5.546875 -1.4375 C 5.742188 -1.476562 5.914062 -1.488281 6.0625 -1.46875 C 6.207031 -1.445312 6.382812 -1.453125 6.59375 -1.484375 C 7.082031 -1.535156 7.742188 -1.84375 8.578125 -2.40625 C 9.109375 -2.925781 9.390625 -3.441406 9.421875 -3.953125 C 9.460938 -4.460938 9.390625 -4.789062 9.203125 -4.9375 C 9.015625 -5.082031 8.757812 -5.15625 8.4375 -5.15625 C 8.125 -5.15625 7.773438 -5.109375 7.390625 -5.015625 C 7.015625 -4.921875 6.644531 -4.867188 6.28125 -4.859375 L 6.28125 -4.796875 C 6.195312 -4.460938 6.113281 -4.164062 6.03125 -3.90625 C 5.945312 -3.65625 5.867188 -3.410156 5.796875 -3.171875 C 5.640625 -2.609375 5.519531 -2.03125 5.4375 -1.4375 Z M 10.296875 -14.71875 C 9.785156 -14.78125 9.234375 -14.378906 8.640625 -13.515625 C 8.265625 -12.972656 7.972656 -12.144531 7.765625 -11.03125 C 8.117188 -11.1875 8.46875 -11.316406 8.8125 -11.421875 C 9.164062 -11.535156 9.5 -11.660156 9.8125 -11.796875 C 10.5625 -12.117188 11.097656 -12.515625 11.421875 -12.984375 C 11.796875 -13.421875 11.914062 -13.796875 11.78125 -14.109375 C 11.570312 -14.378906 11.238281 -14.625 10.78125 -14.84375 C 10.644531 -14.71875 10.484375 -14.675781 10.296875 -14.71875 Z M 9.90625 -14.8125 L 9.984375 -14.8125 Z M 9.90625 -14.8125 "/></g></g></g><g fill="rgb(100%, 100%, 100%)" fill-opacity="1"><g transform="translate(69.46079, 30.043387)"><g><path d="M 8.875 1.21875 C 8.507812 1.320312 8.164062 1.378906 7.84375 1.390625 C 7.519531 1.398438 7.191406 1.410156 6.859375 1.421875 C 6.523438 1.441406 6.066406 1.453125 5.484375 1.453125 C 4.910156 1.453125 4.046875 1.4375 2.890625 1.40625 C 2.617188 1.425781 2.347656 1.4375 2.078125 1.4375 C 1.804688 1.4375 1.550781 1.382812 1.3125 1.28125 C 0.78125 1.050781 0.421875 0.539062 0.234375 -0.25 C 0.148438 -0.625 0.0546875 -0.890625 -0.046875 -1.046875 C -0.160156 -1.203125 -0.253906 -1.347656 -0.328125 -1.484375 C -0.492188 -1.753906 -0.476562 -2.203125 -0.28125 -2.828125 C -0.09375 -3.460938 0.148438 -4.242188 0.453125 -5.171875 C 0.765625 -6.097656 1.117188 -7.082031 1.515625 -8.125 C 2.429688 -10.59375 3.253906 -12.550781 3.984375 -14 C 4.273438 -14.644531 4.523438 -15.207031 4.734375 -15.6875 C 4.953125 -16.164062 5.144531 -16.578125 5.3125 -16.921875 C 5.488281 -17.273438 5.578125 -17.457031 5.578125 -17.46875 C 5.742188 -18.113281 6.398438 -18.660156 7.546875 -19.109375 C 8.648438 -19.566406 9.65625 -19.6875 10.5625 -19.46875 C 11.5625 -19.207031 12.003906 -18.539062 11.890625 -17.46875 C 11.648438 -16.414062 11.296875 -15.359375 10.828125 -14.296875 C 10.359375 -13.242188 9.820312 -12.140625 9.21875 -10.984375 C 8.625 -9.828125 7.976562 -8.597656 7.28125 -7.296875 C 6.582031 -6.003906 5.894531 -4.601562 5.21875 -3.09375 C 5.195312 -3.019531 5.226562 -2.957031 5.3125 -2.90625 C 5.539062 -2.925781 5.851562 -2.992188 6.25 -3.109375 C 6.65625 -3.234375 7.070312 -3.34375 7.5 -3.4375 C 7.9375 -3.53125 8.367188 -3.578125 8.796875 -3.578125 C 9.222656 -3.578125 9.578125 -3.46875 9.859375 -3.25 C 9.847656 -2.9375 9.925781 -2.691406 10.09375 -2.515625 C 10.269531 -2.335938 10.441406 -2.164062 10.609375 -2 C 11.035156 -1.550781 11.066406 -0.960938 10.703125 -0.234375 C 10.367188 0.484375 9.757812 0.96875 8.875 1.21875 Z M 8.875 1.21875 "/></g></g></g><g fill="rgb(100%, 100%, 100%)" fill-opacity="1"><g transform="translate(82.662119, 30.043387)"><g><path d="M 5.1875 -16.90625 C 6.257812 -18.132812 7.453125 -18.90625 8.765625 -19.21875 C 9.660156 -19.4375 10.507812 -19.398438 11.3125 -19.109375 C 11.945312 -19.773438 12.765625 -20.015625 13.765625 -19.828125 C 14.691406 -19.648438 15.476562 -19.128906 16.125 -18.265625 C 16.15625 -18.148438 16.222656 -17.972656 16.328125 -17.734375 C 16.441406 -17.492188 16.550781 -17.226562 16.65625 -16.9375 C 17.40625 -15.195312 17.460938 -12.914062 16.828125 -10.09375 C 16.046875 -6.582031 14.660156 -3.609375 12.671875 -1.171875 C 12.054688 -0.421875 11.367188 0.195312 10.609375 0.6875 C 9.378906 1.625 7.910156 2.039062 6.203125 1.9375 C 5.148438 1.882812 4.265625 1.625 3.546875 1.15625 C 0.703125 -0.257812 -0.222656 -3.207031 0.765625 -7.6875 C 1.585938 -11.363281 3.0625 -14.4375 5.1875 -16.90625 Z M 5.5 -3.34375 L 5.46875 -3.1875 L 5.515625 -2.90625 C 5.617188 -2.382812 5.789062 -1.984375 6.03125 -1.703125 C 6.269531 -1.421875 6.460938 -1.242188 6.609375 -1.171875 C 6.785156 -1.304688 6.957031 -1.429688 7.125 -1.546875 C 7.300781 -1.671875 7.457031 -1.820312 7.59375 -2 C 8.75 -3.425781 9.648438 -5.296875 10.296875 -7.609375 C 10.941406 -9.929688 11.179688 -12.078125 11.015625 -14.046875 C 10.347656 -13.191406 9.644531 -12.210938 8.90625 -11.109375 C 8.175781 -10.003906 7.597656 -9.0625 7.171875 -8.28125 C 6.203125 -6.457031 5.644531 -4.8125 5.5 -3.34375 Z M 5.5 -3.34375 "/></g></g></g><g fill="rgb(100%, 100%, 100%)" fill-opacity="1"><g transform="translate(100.255143, 30.043387)"><g><path d="M 10.140625 -19.28125 C 12.597656 -19.78125 14.503906 -19.476562 15.859375 -18.375 C 16.503906 -17.84375 16.929688 -17.070312 17.140625 -16.0625 C 17.359375 -15.0625 17.25 -13.941406 16.8125 -12.703125 C 16.625 -12.117188 16.300781 -11.679688 15.84375 -11.390625 C 15.382812 -11.097656 14.910156 -10.929688 14.421875 -10.890625 C 13.929688 -10.847656 13.488281 -10.90625 13.09375 -11.0625 C 12.707031 -11.226562 12.5 -11.46875 12.46875 -11.78125 L 12.234375 -12.28125 C 11.828125 -12.894531 11.117188 -12.972656 10.109375 -12.515625 C 9.242188 -12.128906 8.378906 -11.445312 7.515625 -10.46875 C 6.585938 -9.4375 5.988281 -8.5 5.71875 -7.65625 C 5.414062 -6.738281 5.265625 -6.132812 5.265625 -5.84375 C 5.234375 -5.195312 5.460938 -4.617188 5.953125 -4.109375 C 6.671875 -3.648438 7.382812 -3.441406 8.09375 -3.484375 C 8.8125 -3.523438 9.453125 -3.6875 10.015625 -3.96875 C 10.578125 -4.25 11.035156 -4.566406 11.390625 -4.921875 C 11.753906 -5.285156 11.9375 -5.546875 11.9375 -5.703125 C 11.976562 -5.796875 12.023438 -5.894531 12.078125 -6 C 12.128906 -6.101562 12.175781 -6.207031 12.21875 -6.3125 C 12.144531 -6.3125 12.160156 -6.3125 12.265625 -6.3125 C 12.367188 -6.320312 12.394531 -6.320312 12.34375 -6.3125 C 12.289062 -6.3125 12.316406 -6.300781 12.421875 -6.28125 L 12.5625 -6.234375 C 11.726562 -5.484375 10.921875 -5.332031 10.140625 -5.78125 C 9.835938 -5.957031 9.566406 -6.148438 9.328125 -6.359375 C 9.085938 -6.578125 8.863281 -6.679688 8.65625 -6.671875 C 8.28125 -6.867188 8.195312 -7.269531 8.40625 -7.875 C 8.488281 -8.101562 8.644531 -8.320312 8.875 -8.53125 C 9.101562 -8.75 9.398438 -8.90625 9.765625 -9 C 11.460938 -9.726562 13.035156 -9.894531 14.484375 -9.5 C 15.128906 -9.332031 15.578125 -8.988281 15.828125 -8.46875 C 16.078125 -7.945312 16.179688 -7.363281 16.140625 -6.71875 C 16.109375 -6.070312 15.96875 -5.414062 15.71875 -4.75 C 15.476562 -4.082031 15.210938 -3.546875 14.921875 -3.140625 C 14.628906 -2.742188 14.222656 -2.273438 13.703125 -1.734375 C 13.179688 -1.191406 12.53125 -0.664062 11.75 -0.15625 C 9.820312 1.09375 7.757812 1.691406 5.5625 1.640625 C 2.382812 1.585938 0.503906 0.28125 -0.078125 -2.28125 C -0.265625 -3.09375 -0.347656 -4.007812 -0.328125 -5.03125 C -0.160156 -8 0.722656 -10.765625 2.328125 -13.328125 C 3.085938 -14.554688 4.117188 -15.769531 5.421875 -16.96875 C 6.234375 -17.695312 7.148438 -18.257812 8.171875 -18.65625 C 8.722656 -18.875 9.378906 -19.082031 10.140625 -19.28125 Z M 10.140625 -19.28125 "/></g></g></g><path fill="rgb(100%, 100%, 100%)" d="M 59.136719 17.265625 L 56.359375 17.964844 C 53.820312 18.601562 51.835938 21.015625 51.3125 24.105469 L 50.734375 27.480469 L 50.160156 24.105469 C 49.636719 21.015625 47.652344 18.601562 45.113281 17.964844 L 42.332031 17.265625 L 45.113281 16.566406 C 47.652344 15.925781 49.636719 13.511719 50.160156 10.425781 L 50.734375 7.046875 L 51.3125 10.425781 C 51.835938 13.511719 53.820312 15.925781 56.359375 16.566406 Z M 59.136719 17.265625 " fill-opacity="1" fill-rule="nonzero"/><path fill="rgb(100%, 100%, 100%)" d="M 72.699219 31.476562 L 70.582031 31.910156 C 68.648438 32.308594 67.136719 33.8125 66.738281 35.734375 L 66.300781 37.835938 L 65.863281 35.734375 C 65.460938 33.8125 63.949219 32.308594 62.015625 31.910156 L 59.898438 31.476562 L 62.015625 31.039062 C 63.949219 30.640625 65.460938 29.140625 65.863281 27.214844 L 66.300781 25.113281 L 66.738281 27.214844 C 67.136719 29.140625 68.648438 30.640625 70.582031 31.039062 Z M 72.699219 31.476562 " fill-opacity="1" fill-rule="nonzero"/><g clip-path="url(#id1)"><path fill="rgb(100%, 100%, 100%)" d="M 47.183594 40.085938 L 43.785156 40.449219 C 42.167969 40.785156 40.902344 42.039062 40.566406 43.648438 L 40.203125 48.484375 L 39.835938 43.648438 C 39.5 42.039062 38.238281 40.785156 36.621094 40.449219 L 33.484375 40.085938 L 36.621094 39.722656 C 38.238281 39.390625 39.5 38.132812 39.835938 36.527344 L 40.203125 30.195312 L 40.566406 36.527344 C 40.902344 38.132812 42.167969 39.390625 43.785156 39.722656 Z M 47.183594 40.085938 " fill-opacity="1" fill-rule="nonzero"/></g><g clip-path="url(#id2)"><path fill="rgb(100%, 100%, 100%)" d="M 73.457031 14.359375 L 72.742188 14.558594 C 72.085938 14.742188 71.574219 15.425781 71.4375 16.304688 L 71.289062 17.265625 L 71.140625 16.304688 C 71.007812 15.425781 70.496094 14.742188 69.839844 14.558594 L 69.125 14.359375 L 69.839844 14.160156 C 70.496094 13.980469 71.007812 13.292969 71.140625 12.414062 L 71.289062 11.457031 L 71.4375 12.414062 C 71.574219 13.292969 72.085938 13.980469 72.742188 14.160156 Z M 73.457031 14.359375 " fill-opacity="1" fill-rule="nonzero"/></g><g clip-path="url(#id3)"><path fill="rgb(100%, 100%, 100%)" d="M 29.996094 21.769531 L 29.410156 21.933594 C 28.875 22.082031 28.453125 22.644531 28.34375 23.363281 L 28.222656 24.148438 L 28.101562 23.363281 C 27.988281 22.644531 27.570312 22.082031 27.035156 21.933594 L 26.449219 21.769531 L 27.035156 21.605469 C 27.570312 21.457031 27.988281 20.898438 28.101562 20.179688 L 28.222656 19.390625 L 28.34375 20.179688 C 28.453125 20.898438 28.875 21.457031 29.410156 21.605469 Z M 29.996094 21.769531 " fill-opacity="1" fill-rule="nonzero"/></g><path fill="rgb(100%, 100%, 100%)" d="M 42.777344 3.285156 L 41.972656 3.507812 C 41.230469 3.714844 40.65625 4.488281 40.503906 5.476562 L 40.335938 6.5625 L 40.167969 5.476562 C 40.015625 4.488281 39.4375 3.714844 38.699219 3.507812 L 37.890625 3.285156 L 38.699219 3.0625 C 39.4375 2.855469 40.015625 2.082031 40.167969 1.09375 L 40.335938 0.0117188 L 40.503906 1.09375 C 40.65625 2.082031 41.230469 2.855469 41.972656 3.0625 Z M 42.777344 3.285156 " fill-opacity="1" fill-rule="nonzero"/><path fill="rgb(100%, 100%, 100%)" d="M 64.882812 4.878906 L 64.488281 4.988281 C 64.128906 5.089844 63.847656 5.464844 63.773438 5.945312 L 63.695312 6.472656 L 63.613281 5.945312 C 63.539062 5.464844 63.257812 5.089844 62.898438 4.988281 L 62.503906 4.878906 L 62.898438 4.769531 C 63.257812 4.671875 63.539062 4.292969 63.613281 3.8125 L 63.695312 3.285156 L 63.773438 3.8125 C 63.847656 4.292969 64.128906 4.671875 64.488281 4.769531 Z M 64.882812 4.878906 " fill-opacity="1" fill-rule="nonzero"/></svg>